<svg xmlns="http://www.w3.org/2000/svg" viewBox="0 0 21.431 12.158"><path fill="#fc0" d="m15.042 8.824.423 1.098-2.17.198-.344-1.084 1.012-.388zm-3.136.317.252 1.085-6.641.596-.291-.993 3.053-.778z"/><path fill="#7dbf49" d="m11.907 9.142-6.681.687-2.726.278-.41-.825 9.75-1.916 4.657.373.132.926-1.587.159-2.09.212z"/><path fill="#b7b7b7" d="m.82 5.239-.529.092L0 3.466l.516-.08.291.681zm.688 4.193-.754.172L.503 6.76l.555-.08.43 1.195z"/><path fill="#767d83" d="m1.337 2.792 9.524-1.416-.298 3.73 1.674 3.15-9.843 1.19-.812-3.139zM15.334.715l4.775-.714-.383.992-.311 2.441 1.13 2.454.887 1.257-4.537.555-.344-3.75z"/><path fill="#4c5154" d="m10.861 1.376 4.472-.662 2.936 2.805-1.375 4.18-.397.04-4.26.516L9.34 5.173zm8.864-.384.82 4.895-1.76-2.487z"/><path fill="#ccc" d="m.198 1.442.874-.198L2.844 11.92l-.9.238"/><path fill="#767d83" d="M12.197 3.082a2.3 2.3 0 0 1 1.818-.683c1.076.037 2.043.929 2.18 1.993.102.69-.096 1.427-.58 1.937a2.3 2.3 0 0 1-1.781.775 2.3 2.3 0 0 1-1.76-.82c-.74-.82-.756-2.186-.038-3.025q.077-.092.161-.176"/></svg>